Coordinates
version=1
nRows=19
nColumns=24
inDegrees=yes

Units are S.I. units (second, meters, Newtons, ...)
Angles are in degrees.

endheader
time	pelvis_tilt	pelvis_list	pelvis_rotation	pelvis_tx	pelvis_ty	pelvis_tz	hip_flexion_r	hip_adduction_r	hip_rotation_r	knee_angle_r	ankle_angle_r	subtalar_angle_r	mtp_angle_r	hip_flexion_l	hip_adduction_l	hip_rotation_l	knee_angle_l	ankle_angle_l	subtalar_angle_l	mtp_angle_l	lumbar_extension	lumbar_bending	lumbar_rotation
      1.19150000	      0.50904619	      8.20489672	     -6.52534530	      0.20920573	      1.00696117	      0.25491351	     10.76263324	    -11.75470600	      0.40883222	    -65.03150492	     -5.20948515	     -6.55874677	      4.80141396	      7.55666175	     13.31520164	      5.31850198	    -17.86571370	      7.19935712	    -18.20693869	     -4.06718464	    -12.94356316	     -4.27613573	      0.39631754
      1.19566667	      0.49821492	      8.01591673	     -6.51946704	      0.21416814	      1.00784611	      0.25479357	     11.21391931	    -11.48210421	      0.42414017	    -64.85957870	     -4.17174526	     -6.90756678	      4.79733053	      7.03735381	     13.14781587	      5.41290447	    -17.47447774	      7.20069808	    -18.19916360	     -4.06876538	    -12.96328564	     -3.97546109	      0.21275141
      1.19983333	      0.52809351	      7.85399776	     -6.49438725	      0.21918221	      1.00879559	      0.25464722	     11.59962618	    -11.25615459	      0.39950241	    -64.61843187	     -3.17460284	     -7.20929651	      4.73285122	      6.43068782	     13.02377298	      5.61325899	    -16.98866556	      7.10056044	    -18.32938748	     -4.08289134	    -12.98859268	     -3.71179517	     -0.17023815
      1.20400000	      0.49741414	      7.66228971	     -6.47405876	      0.22413946	      1.00965917	      0.25455922	     12.04756447	    -10.96625003	      0.40411796	    -64.33001347	     -2.23668009	     -7.58756077	      4.71775342	      5.92453474	     12.84346168	      5.70433620	    -16.57511617	      7.06917703	    -18.31817589	     -4.08892138	    -12.96594847	     -3.46897312	     -0.25008111
      1.20816667	      0.53199628	      7.48822311	     -6.42451819	      0.22912394	      1.01059671	      0.25436506	     12.40189337	    -10.72830810	      0.35193959	    -63.97750075	     -1.35838914	     -7.92640807	      4.57473468	      5.30395146	     12.71054021	      5.95649695	    -16.06916709	      6.90381383	    -18.52989827	     -4.12071539	    -13.02460177	     -3.15164987	     -0.67137153
      1.21233333	      0.53553263	      7.29278363	     -6.38699516	      0.23409077	      1.01149352	      0.25424241	     12.77917553	    -10.44237577	      0.33102213	    -63.56575328	     -0.53236367	     -8.26738966	      4.45631215	      4.73580346	     12.53458676	      6.11528028	    -15.60149743	      6.80865953	    -18.62131072	     -4.14687398	    -13.04412564	     -2.86386744	     -0.87401882
      1.21650000	      0.53006947	      7.12913010	     -6.31630250	      0.23904615	      1.01233351	      0.25406686	     13.15957826	    -10.20413272	      0.26864387	    -63.12131667	      0.26826359	     -8.65814410	      4.24364947	      4.17743844	     12.39473530	      6.32027747	    -15.12420883	      6.65253450	    -18.74646963	     -4.18948263	    -13.05357648	     -2.59363442	     -1.16775970
      1.22066667	      0.53338372	      6.94479414	     -6.24812406	      0.24398540	      1.01318047	      0.25392058	     13.51277485	     -9.93329821	      0.21858178	    -62.61330464	      1.02818264	     -9.03284670	      4.01488508	      3.61526383	     12.22667184	      6.49318390	    -14.65968109	      6.52649213	    -18.82400326	     -4.23241328	    -13.07928218	     -2.31640913	     -1.40103816
      1.22483333	      0.51262555	      6.75758627	     -6.17913563	      0.24891650	      1.01397196	      0.25378867	     13.88156837	     -9.64987036	      0.18152228	    -62.05548541	      1.74247654	     -9.38155363	      3.82260417	      3.08345338	     12.04833136	      6.65269071	    -14.20155259	      6.41402195	    -18.88121487	     -4.26753618	    -13.08123974	     -2.02698363	     -1.61095136
      1.22900000	      0.49603102	      6.55657610	     -6.09450573	      0.25386228	      1.01476707	      0.25365001	     14.22007499	     -9.35425051	      0.12414206	    -61.43124256	      2.41810958	     -9.74539530	      3.65255531	      2.54998960	     11.85140078	      6.80011156	    -13.75290507	      6.30441092	    -18.92385162	     -4.29669540	    -13.07318043	     -1.72448980	     -1.81968549
      1.23316667	      0.49182872	      6.40502637	     -5.98627702	      0.25878342	      1.01551665	      0.25348169	     14.54516981	     -9.12593486	      0.04338733	    -60.78301116	      3.10471400	    -10.12100761	      3.27232250	      2.00422865	     11.71100349	      6.99799119	    -13.28853192	      6.10665044	    -19.04998623	     -4.35359034	    -13.07699599	     -1.48589130	     -2.13978452
      1.23733333	      0.44689220	      6.22637514	     -5.89390018	      0.26369384	      1.01619821	      0.25334605	     14.90183832	     -8.84572035	      0.00468525	    -60.08431026	      3.79682597	    -10.39428923	      0.06933822	      1.50311158	     11.53749749	      7.21328658	    -12.83223222	      5.95445472	    -19.22215550	     -4.73399476	    -13.05515155	     -1.23697837	     -2.20517054
      1.24150000	      0.40687514	      6.03667567	     -5.79599735	      0.26860664	      1.01687165	      0.25324293	     15.23098602	     -8.55144276	     -0.03534049	    -59.31724459	      4.38261987	    -10.70354857	      0.03925466	      1.02596644	     11.33251592	      7.27302365	    -12.42984279	      5.87057512	    -19.10178483	     -4.73611450	    -13.01953392	     -0.93946376	     -2.46205970
      1.24566667	      0.37700955	      5.85319005	     -5.68262472	      0.27350172	      1.01752787	      0.25312441	     15.53414723	     -8.26917083	     -0.08714885	    -58.50226906	      4.94652898	    -11.02719846	     -0.00975394	      0.53797961	     11.13865532	      7.39209407	    -12.02622374	      5.76018140	    -19.07730579	     -4.73767650	    -13.00565707	     -0.66404122	     -2.69239087
      1.24983333	      0.33974910	      5.68150993	     -5.56395376	      0.27838825	      1.01812006	      0.25300759	     15.83661950	     -8.00063727	     -0.13507921	    -57.64877812	      5.49439089	    -11.31238343	     -0.07187032	      0.06724016	     10.95531994	      7.51374342	    -11.63640758	      5.63799538	    -19.07653883	     -4.73776082	    -12.97823584	     -0.41144342	     -2.90601772
      1.25400000	      0.28604225	      5.52579639	     -5.44327498	      0.28325713	      1.01865427	      0.25289465	     16.15118914	     -7.74709209	     -0.17183177	    -56.75817859	      6.00891778	    -11.59441558	     -0.16300496	     -0.38189875	     10.78646460	      7.65206970	    -11.24536176	      5.49567263	    -19.09413243	     -4.73512569	    -12.94015225	     -0.16297161	     -3.13673232
      1.25816667	      0.21165708	      5.36075416	     -5.31254950	      0.28811423	      1.01912751	      0.25279235	     16.46946022	     -7.48104328	     -0.20882550	    -55.81686153	      6.52889052	    -11.81695492	     -0.22324396	     -0.77898583	     10.60050890	      7.73649764	    -10.91754235	      5.37699422	    -19.06449177	     -4.73254923	    -12.87879902	      0.06744253	     -3.27105488
      1.26233333	      0.14924345	      5.20810579	     -5.18221071	      0.29296807	      1.01957551	      0.25269229	     16.76561290	     -7.23194521	     -0.24035303	    -54.83520851	      6.99073459	    -12.04314763	     -0.29467760	     -1.19170369	     10.42792406	      7.84352664	    -10.57786960	      5.25844510	    -19.04071354	     -4.72739742	    -12.83093691	      0.30106034	     -3.45321018
      1.26650000	      0.10021458	      5.06858440	     -5.05033260	      0.29782019	      1.02002005	      0.25260280	     17.03509024	     -6.99898714	     -0.26359126	    -53.80798960	      7.37809432	    -12.29769186	     -0.44918720	     -1.63119630	     10.27008083	      8.00305536	    -10.20714971	      5.12061422	    -19.05940552	     -4.71037643	    -12.79568740	      0.53239834	     -3.74555064
